<svg width="646" height="478" viewBox="0 0 646 478" fill="none" xmlns="http://www.w3.org/2000/svg">
<g opacity="0.9" clip-path="url(#clip0_578_12990)">
<path opacity="0.1" d="M42.2805 187.351H98.426V263.981H46.3858C46.253 264.773 46.1202 265.56 45.9708 266.352H98.426V328.141C98.3375 328.141 98.249 328.075 98.166 328.042C96.6906 327.454 95.2153 326.832 93.7399 326.175C93.4245 326.031 93.1147 325.881 92.7938 325.743C91.3184 325.045 89.843 324.306 88.3676 323.527C87.8531 323.255 87.3386 322.973 86.8351 322.685C78.6444 318.109 71.2 312.306 64.7598 305.479C64.5661 305.296 64.3891 305.096 64.2065 304.925C63.3102 303.95 62.4305 302.964 61.5785 301.955C61.2576 301.584 60.9477 301.208 60.6324 300.847C59.6254 299.618 58.6517 298.344 57.7111 297.064C57.5673 296.87 57.4345 296.682 57.2962 296.51C53.4432 291.172 50.248 285.387 47.78 279.282C47.7025 279.099 47.6306 278.899 47.5587 278.728C46.7952 276.789 46.1036 274.822 45.5061 272.817C45.2516 271.98 45.0026 271.155 44.7923 270.285C44.7149 270.036 44.654 269.781 44.5876 269.532C41.4783 257.261 41.1187 244.509 41.1187 231.818C41.1187 230.341 41.1187 228.863 41.1187 227.386C41.1629 222.205 41.2238 217.029 41.3012 211.858C41.3307 210.529 41.3584 209.194 41.3842 207.853C41.4617 204.459 41.5723 201.058 41.7162 197.649C41.7494 196.708 41.7936 195.76 41.8434 194.824C41.8656 194.281 41.8932 193.738 41.9264 193.195C42.026 191.234 42.144 189.286 42.2805 187.351Z" fill="#006875"/>
<path opacity="0.1" d="M98.4264 102.029H67.626C72.635 94.1879 78.1054 86.6517 84.0082 79.4607C88.5893 73.8324 93.4138 68.3482 98.4264 63.0634V102.029Z" fill="#006875"/>
<path opacity="0.1" d="M98.426 104.389V184.98H42.4575C42.4575 184.747 42.4907 184.509 42.5128 184.276C42.5626 183.639 42.6124 183.008 42.6678 182.371C42.7231 181.629 42.795 180.886 42.8669 180.155C42.9389 179.424 43.0108 178.537 43.0993 177.734C43.1878 176.931 43.2598 176.117 43.3483 175.313C43.4368 174.51 43.5253 173.707 43.6249 172.909C43.7245 172.111 43.813 171.303 43.9237 170.505C44.0067 169.846 44.0897 169.181 44.1837 168.516C44.311 167.58 44.4437 166.644 44.5821 165.713C44.5821 165.569 44.6263 165.431 44.6485 165.292C45.6596 158.48 47.0337 151.727 48.7648 145.061C50.5826 138.07 52.9032 131.22 55.7083 124.565C58.6889 117.591 62.1803 110.847 66.1539 104.389H98.426Z" fill="#006875"/>
<path opacity="0.1" d="M111.837 187.351V263.981H231.764V187.351H111.837ZM111.837 266.352V332.163C112.523 332.302 113.198 332.44 113.879 332.556C114.792 332.734 115.71 332.894 116.645 333.033L117.199 333.11C117.564 333.171 117.934 333.221 118.305 333.265C119.229 333.398 120.153 333.498 121.071 333.587C121.503 333.631 121.951 333.664 122.388 333.703L123.456 333.781C124.037 333.825 124.612 333.858 125.188 333.88C125.542 333.88 125.896 333.908 126.256 333.919C126.615 333.93 126.809 333.919 127.097 333.919H128.142C128.618 333.919 129.094 333.919 129.564 333.919H130.173C130.648 333.919 131.124 333.919 131.595 333.875H131.622C131.954 333.875 132.281 333.875 132.613 333.836C132.707 333.842 132.801 333.842 132.895 333.836C133.171 333.836 133.448 333.836 133.714 333.803C133.776 333.798 133.839 333.798 133.902 333.803C134.516 333.764 135.135 333.714 135.761 333.659C136.386 333.603 136.978 333.537 137.603 333.47L138.859 333.315C143.991 332.596 149.066 331.515 154.046 330.08C165.239 326.956 176.177 322.585 187.364 319.389C201.815 315.262 217.794 313.229 231.758 318.253V266.352H111.837ZM231.764 102.029V0.011047C218.635 -0.133578 205.542 1.40227 192.802 4.58126C162.434 12.2204 135.163 28.7895 111.837 49.951V102.024H117.874V104.389H111.837V184.98H231.764V104.389H142.566V102.018L231.764 102.029ZM385.837 67.5671C378.324 67.3012 370.855 64.9247 364.094 61.2408C351.181 54.211 340.857 43.3422 329.327 34.1796C305.37 15.0844 275.66 3.55642 245.18 0.697964V102.029H416.367L416.793 101.581L385.837 67.5671ZM401.434 64.7973L417.971 82.9729V60.0166C412.405 60.7201 407.559 62.3543 401.434 64.7751V64.7973ZM417.971 348.505V266.352H382.706C382.617 266.003 382.518 265.648 382.407 265.294C382.512 265.648 382.606 266.003 382.7 266.352H245.18V325.759C246.486 326.729 247.775 327.754 249.053 328.784C250.433 329.914 251.803 331.057 253.164 332.213L254.536 333.349C255.194 333.903 255.864 334.456 256.528 334.983C257.859 336.057 259.2 337.121 260.55 338.174C261.225 338.705 261.904 339.228 262.586 339.741C273.393 348.011 284.791 355.474 296.689 362.072C299.356 363.562 302.051 364.997 304.762 366.398C306.565 367.329 308.382 368.241 310.211 369.135C312.955 370.475 315.722 371.768 318.51 373.012C344.218 384.567 371.403 392.494 399.287 396.567C405.476 397.479 411.693 398.199 417.938 398.728V348.494H418.491L417.971 348.505ZM245.18 104.389V184.98H417.971V104.389H245.18ZM245.18 187.34V263.981H417.971V187.351L245.18 187.34ZM431.382 59.9058V85.5544L452.484 62.3598C445.491 61.2039 438.457 60.3859 431.382 59.9058ZM431.382 187.351V263.981H599.437V187.351H431.382ZM598.845 354.582L599.437 266.352H431.382V399.619C442.207 400.07 453.048 399.939 463.859 399.226H464.047C469.211 398.894 474.351 398.421 479.467 397.808H479.583C506.884 394.626 533.578 387.486 558.827 376.613L598.845 354.582ZM631.859 199.937C631.22 198.46 630.566 196.983 629.894 195.505C628.644 192.736 627.327 190.043 625.966 187.357H612.854V263.981H646C645.972 242.277 640.484 220.118 631.859 199.937ZM612.854 266.352V342.245C622.187 333.288 630.083 323.034 635.759 311.312C642.592 297.191 645.718 281.913 645.978 266.346L612.854 266.352ZM612.854 165.021V184.963H624.738C621.135 178.108 617.168 171.451 612.854 165.021ZM498.881 74.9459C498.007 74.608 497.127 74.2701 496.247 73.9488C486.972 70.5165 477.493 67.6636 467.865 65.4067L435.565 100.894L434.934 101.575L435.349 102.024H550.307C534.295 90.9921 517.033 81.9026 498.881 74.9459ZM553.682 104.389H433.739L431.382 106.544V184.98H452.047H599.437V146.978C586.11 130.841 570.727 116.522 553.682 104.389Z" fill="#006875"/>
<path opacity="0.1" d="M98.426 145.045V184.98H42.4575C42.4575 184.747 42.4907 184.509 42.5128 184.276C42.5626 183.639 42.6124 183.008 42.6678 182.371C42.7231 181.629 42.795 180.886 42.8669 180.155C42.9389 179.424 43.0108 178.537 43.0993 177.734C43.1878 176.931 43.2598 176.117 43.3483 175.313C43.4368 174.51 43.5253 173.707 43.6249 172.909C43.7245 172.111 43.813 171.303 43.9237 170.505C44.0067 169.846 44.0897 169.181 44.1837 168.516C44.311 167.58 44.4437 166.644 44.5821 165.713C44.5821 165.569 44.6263 165.431 44.6485 165.292C45.6596 158.48 47.0337 151.727 48.7648 145.061L98.426 145.045Z" fill="#006875"/>
<path opacity="0.1" d="M42.2805 187.351H98.426V263.981H46.3858C46.253 264.773 46.1202 265.56 45.9708 266.352H98.426V328.141C98.3375 328.141 98.249 328.075 98.166 328.042C96.6906 327.454 95.2153 326.832 93.7399 326.175C93.4245 326.031 93.1147 325.881 92.7938 325.743C91.3184 325.045 89.843 324.306 88.3676 323.527C87.8531 323.255 87.3386 322.973 86.8351 322.685C78.6444 318.109 71.2 312.306 64.7598 305.479C64.5661 305.296 64.3891 305.096 64.2065 304.925C63.3102 303.95 62.4305 302.964 61.5785 301.955C61.2576 301.584 60.9477 301.208 60.6324 300.847C59.6254 299.618 58.6517 298.344 57.7111 297.064C57.5673 296.87 57.4345 296.682 57.2962 296.51C53.4432 291.172 50.248 285.387 47.78 279.282C47.7025 279.099 47.6306 278.899 47.5587 278.728C46.7952 276.789 46.1036 274.822 45.5061 272.817C45.2516 271.98 45.0026 271.155 44.7923 270.285C44.7149 270.036 44.654 269.781 44.5876 269.532C41.4783 257.261 41.1187 244.509 41.1187 231.818C41.1187 230.341 41.1187 228.863 41.1187 227.386C41.1629 222.205 41.2238 217.029 41.3012 211.858C41.3307 210.529 41.3584 209.194 41.3842 207.853C41.4617 204.459 41.5723 201.058 41.7162 197.649C41.7494 196.708 41.7936 195.76 41.8434 194.824C41.8656 194.281 41.8932 193.738 41.9264 193.195C42.026 191.234 42.144 189.286 42.2805 187.351Z" fill="#006875"/>
<path opacity="0.1" d="M154.052 115.934V184.98H111.832V115.934H117.852V92.5565H142.56V115.934H154.052Z" fill="#006875"/>
<path opacity="0.1" d="M154.046 187.345H111.832V263.975H154.046V187.345Z" fill="#006875"/>
<path opacity="0.1" d="M111.837 266.352H154.052V330.058C149.072 331.494 143.997 332.573 138.864 333.288C138.444 333.349 138.029 333.398 137.609 333.443C136.989 333.515 136.375 333.581 135.761 333.637L133.907 333.786H133.719L132.9 333.831H132.618C132.286 333.831 131.96 333.869 131.628 333.875H131.6C131.124 333.875 130.654 333.908 130.178 333.919H129.57C129.099 333.919 128.629 333.919 128.148 333.919H127.108H126.261C125.901 333.919 125.547 333.919 125.188 333.875C124.62 333.853 124.044 333.819 123.462 333.775L122.394 333.698C121.951 333.664 121.509 333.62 121.071 333.576C120.142 333.494 119.22 333.389 118.305 333.26L117.199 333.105L116.645 333.027C115.721 332.889 114.803 332.734 113.879 332.556C113.193 332.435 112.518 332.296 111.837 332.152V266.352Z" fill="#006875"/>
<path opacity="0.1" d="M417.965 107.78H383.154V184.975H417.965V107.78Z" fill="#006875"/>
<path opacity="0.1" d="M417.971 187.345V263.981H245.18V230.926H337.216V250.425H383.154V187.345H417.971Z" fill="#006875"/>
<path opacity="0.1" d="M418.519 348.522C418.336 348.522 418.154 348.522 417.965 348.488V398.761C411.728 398.247 405.513 397.529 399.32 396.606C371.427 392.534 344.231 384.611 318.51 373.062C311.085 369.709 303.812 366.055 296.689 362.099C284.795 355.499 273.398 348.035 262.591 339.769C259.869 337.686 257.188 335.557 254.547 333.382C252.716 331.864 250.901 330.313 249.053 328.812C247.781 327.776 246.491 326.751 245.18 325.776V266.352H382.7C382.601 265.997 382.512 265.648 382.413 265.294C382.518 265.648 382.617 265.997 382.706 266.352H417.971V348.483C418.154 348.488 418.336 348.505 418.519 348.522Z" fill="#006875"/>
<path opacity="0.1" d="M508.762 102.029H486.078V94.9718H496.242V73.9489C497.123 74.2738 498.001 74.6062 498.875 74.946V94.9718H508.757L508.762 102.029Z" fill="#006875"/>
<path opacity="0.1" d="M563.419 184.98H452.047C452.058 184.983 452.069 184.983 452.08 184.98H452.03H431.382V107.785H437.236V164.843H463.981V131.052H486.084V104.389H508.768V131.068H530.86V164.86H563.425L563.419 184.98Z" fill="#006875"/>
<path opacity="0.1" d="M431.382 187.351V263.981H563.425V187.351H431.382ZM599.249 354.178L599.437 293.518H563.425V266.374H431.382V399.619C442.207 400.07 453.048 399.939 463.859 399.226H464.047C469.211 398.894 474.351 398.421 479.467 397.808H479.583C506.884 394.626 533.578 387.486 558.827 376.613" fill="#006875"/>
<path opacity="0.1" d="M615.178 266.352H645.978C645.713 281.913 642.592 297.197 635.759 311.312C630.083 323.039 622.188 333.293 612.854 342.251V293.502H615.178V266.352Z" fill="#006875"/>
<path opacity="0.1" d="M646 263.981H615.178V199.937H631.859C640.484 220.118 645.973 242.277 646 263.981Z" fill="#006875"/>
<path opacity="0.1" d="M417.971 129.24H399.32V153.443H417.971V129.24Z" fill="#006875"/>
<path opacity="0.1" d="M417.971 179.407H399.32V184.98H417.971V179.407Z" fill="#006875"/>
<path opacity="0.1" d="M417.971 187.345H399.32V203.604H417.971V187.345Z" fill="#006875"/>
<path opacity="0.1" d="M417.971 229.574H399.32V253.777H417.971V229.574Z" fill="#006875"/>
<path opacity="0.1" d="M417.971 279.741H399.32V303.944H417.971V279.741Z" fill="#006875"/>
<path opacity="0.1" d="M417.971 348.483C418.153 348.483 418.336 348.483 418.524 348.522C418.342 348.522 418.159 348.522 417.971 348.488V354.111H399.32V329.908H417.971V348.483Z" fill="#006875"/>
<path opacity="0.1" d="M417.971 380.07V398.761C411.73 398.248 405.513 397.529 399.32 396.606V380.07H417.971Z" fill="#006875"/>
<path opacity="0.1" d="M325.111 262.203H245.18V263.981H325.111V262.203Z" fill="#006875"/>
<path opacity="0.1" d="M325.111 266.346H245.18V273.16H325.111V266.346Z" fill="#006875"/>
<path opacity="0.1" d="M325.111 295.496H245.18V306.454H325.111V295.496Z" fill="#006875"/>
<path opacity="0.1" d="M325.111 328.79V339.747H262.592C259.87 337.671 257.188 335.541 254.547 333.354C252.71 331.842 250.896 330.291 249.053 328.79H325.111Z" fill="#006875"/>
<path opacity="0.1" d="M325.111 362.077V373.062H318.51C311.085 369.709 303.812 366.055 296.689 362.099L325.111 362.077Z" fill="#006875"/>
<path opacity="0.1" d="M479.594 194.774H463.859V210.529H479.594V194.774Z" fill="#006875"/>
<path opacity="0.1" d="M138.903 121.368H123.168V137.123H138.903V121.368Z" fill="#006875"/>
<path opacity="0.1" d="M138.903 157.963H123.168V173.718H138.903V157.963Z" fill="#006875"/>
<path opacity="0.1" d="M138.903 194.558H123.168V210.313H138.903V194.558Z" fill="#006875"/>
<path opacity="0.1" d="M138.903 231.148H123.168V246.902H138.903V231.148Z" fill="#006875"/>
<path opacity="0.1" d="M138.903 267.742H123.168V283.497H138.903V267.742Z" fill="#006875"/>
<path opacity="0.1" d="M138.903 304.337H123.168V320.092H138.903V304.337Z" fill="#006875"/>
<path opacity="0.1" d="M539.662 194.774H523.927V210.529H539.662V194.774Z" fill="#006875"/>
<path opacity="0.1" d="M479.594 233.635H463.859V249.39H479.594V233.635Z" fill="#006875"/>
<path opacity="0.1" d="M539.662 233.635H523.927V249.39H539.662V233.635Z" fill="#006875"/>
<path opacity="0.1" d="M479.594 272.49H463.859V288.245H479.594V272.49Z" fill="#006875"/>
<path opacity="0.1" d="M539.662 272.49H523.927V288.245H539.662V272.49Z" fill="#006875"/>
<path opacity="0.1" d="M479.594 311.351H463.859V327.105H479.594V311.351Z" fill="#006875"/>
<path opacity="0.1" d="M539.662 311.351H523.927V327.105H539.662V311.351Z" fill="#006875"/>
<path opacity="0.1" d="M479.594 350.211H463.859V365.966H479.594V350.211Z" fill="#006875"/>
<path opacity="0.1" d="M539.662 350.211H523.927V365.966H539.662V350.211Z" fill="#006875"/>
<path opacity="0.1" d="M463.859 399.226V389.066H479.588V397.78L463.859 399.226Z" fill="#006875"/>
<path opacity="0.1" d="M44.582 165.276V174.289H98.426V165.276H44.582ZM49.9432 173.723H45.5171V165.846H49.9432V173.723ZM55.3043 173.723H50.8782V165.846H55.3043V173.723ZM60.6544 173.723H56.2283V165.846H60.6544V173.723ZM66.0156 173.723H61.5895V165.846H66.0156V173.723ZM71.3712 173.723H66.9451V165.846H71.3712V173.723ZM76.7324 173.723H72.3062V165.846H76.7324V173.723ZM82.0935 173.723H77.6674V165.846H82.0935V173.723ZM87.4492 173.723H83.023V165.846H87.4492V173.723ZM92.8048 173.723H88.3786V165.846H92.8048V173.723ZM98.1659 173.723H93.7398V165.846H98.1659V173.723Z" fill="#006875"/>
<path opacity="0.1" d="M44.582 191.511V200.524H98.426V191.511H44.582ZM49.9432 199.959H45.5171V192.082H49.9432V199.959ZM55.3043 199.959H50.8782V192.082H55.3043V199.959ZM60.6544 199.959H56.2283V192.082H60.6544V199.959ZM66.0156 199.959H61.5895V192.082H66.0156V199.959ZM71.3712 199.959H66.9451V192.082H71.3712V199.959ZM76.7324 199.959H72.3062V192.082H76.7324V199.959ZM82.0935 199.959H77.6674V192.082H82.0935V199.959ZM87.4492 199.959H83.023V192.082H87.4492V199.959ZM92.8048 199.959H88.3786V192.082H92.8048V199.959ZM98.1659 199.959H93.7398V192.082H98.1659V199.959Z" fill="#006875"/>
<path opacity="0.1" d="M44.582 217.753V226.76H98.426V217.753H44.582ZM49.9432 226.19H45.5171V218.312H49.9432V226.19ZM55.3043 226.19H50.8782V218.312H55.3043V226.19ZM60.6544 226.19H56.2283V218.312H60.6544V226.19ZM66.0156 226.19H61.5895V218.312H66.0156V226.19ZM71.3712 226.19H66.9451V218.312H71.3712V226.19ZM76.7324 226.19H72.3062V218.312H76.7324V226.19ZM82.0935 226.19H77.6674V218.312H82.0935V226.19ZM87.4492 226.19H83.023V218.312H87.4492V226.19ZM92.8048 226.19H88.3786V218.312H92.8048V226.19ZM98.1659 226.19H93.7398V218.312H98.1659V226.19Z" fill="#006875"/>
<path opacity="0.1" d="M44.582 243.989V252.996H98.426V243.989H44.582ZM49.9432 252.431H45.5171V244.542H49.9432V252.431ZM55.3043 252.431H50.8782V244.542H55.3043V252.431ZM60.6544 252.431H56.2283V244.542H60.6544V252.431ZM66.0156 252.431H61.5895V244.542H66.0156V252.431ZM71.3712 252.431H66.9451V244.542H71.3712V252.431ZM76.7324 252.431H72.3062V244.542H76.7324V252.431ZM82.0935 252.431H77.6674V244.542H82.0935V252.431ZM87.4492 252.431H83.023V244.542H87.4492V252.431ZM92.8048 252.431H88.3786V244.542H92.8048V252.431ZM98.1659 252.431H93.7398V244.542H98.1659V252.431Z" fill="#006875"/>
<path opacity="0.1" d="M44.8423 270.213C45.0525 271.066 45.3015 271.908 45.556 272.745V270.784H49.9821V278.656H47.6086C47.675 278.844 47.7469 279.038 47.8244 279.21H98.4483V270.213H44.8423ZM55.3544 278.656H50.9282V270.784H55.3544V278.656ZM60.7044 278.656H56.2783V270.784H60.7044V278.656ZM66.0656 278.656H61.6395V270.784H66.0656V278.656ZM71.4212 278.656H66.9951V270.784H71.4212V278.656ZM76.7824 278.656H72.3562V270.784H76.7824V278.656ZM82.1435 278.656H77.7174V270.784H82.1435V278.656ZM87.4992 278.656H83.073V270.784H87.4992V278.656ZM92.8548 278.656H88.4287V270.784H92.8548V278.656ZM98.2159 278.656H93.7898V270.784H98.2159V278.656Z" fill="#006875"/>
<path opacity="0.1" d="M57.313 296.449C57.4568 296.626 57.5896 296.826 57.7279 297.003H60.6547V300.787L61.6008 301.894V296.981H66.0269V304.925H64.2067C64.3837 305.107 64.5553 305.301 64.76 305.479H98.4152V296.449H57.313ZM71.3992 304.925H66.973V297.014H71.3992V304.925ZM76.7603 304.925H72.3342V297.014H76.7603V304.925ZM82.1215 304.925H77.6953V297.014H82.1215V304.925ZM87.4771 304.925H83.051V297.014H87.4771V304.925ZM92.8327 304.925H88.4066V297.014H92.8327V304.925ZM98.1939 304.925H93.7677V297.014H98.1939V304.925Z" fill="#006875"/>
<path opacity="0.1" d="M86.8521 322.685C87.3611 322.973 87.8756 323.239 88.3901 323.521V323.244H92.8163V325.743C93.1372 325.881 93.4415 326.031 93.7568 326.175V323.244H98.183V328.042C98.2671 328.08 98.354 328.111 98.443 328.136V322.685H86.8521Z" fill="#006875"/>
<path opacity="0.1" d="M417.966 348.483H418.519H417.966ZM382.407 265.294C382.512 265.649 382.606 266.003 382.7 266.352C382.617 266.003 382.518 265.649 382.407 265.294ZM117.874 102.029V104.389H142.588V102.018L117.874 102.029ZM417.971 348.483H418.524H417.971ZM382.407 265.294C382.512 265.649 382.606 266.003 382.7 266.352C382.617 266.003 382.518 265.649 382.407 265.294ZM417.966 348.483H418.519H417.966ZM382.407 265.294C382.512 265.649 382.606 266.003 382.7 266.352C382.617 266.003 382.518 265.649 382.407 265.294Z" fill="#006875"/>
<path opacity="0.1" d="M486.56 478C516.334 478 540.47 474.118 540.47 469.33C540.47 464.542 516.334 460.661 486.56 460.661C456.786 460.661 432.649 464.542 432.649 469.33C432.649 474.118 456.786 478 486.56 478Z" fill="#006875"/>
<path opacity="0.1" d="M243.421 469.33C273.195 469.33 297.331 465.449 297.331 460.661C297.331 455.873 273.195 451.991 243.421 451.991C213.647 451.991 189.511 455.873 189.511 460.661C189.511 465.449 213.647 469.33 243.421 469.33Z" fill="#006875"/>
<path d="M305.487 231.419C305.473 231.364 305.445 231.314 305.404 231.275C304.579 230.461 294.067 215.576 294.067 215.576C294.067 215.576 293.514 213.914 292.618 211.753C292.905 211.381 293.121 210.958 293.254 210.507C293.302 210.316 293.337 210.121 293.359 209.925C293.359 209.864 293.403 209.814 293.42 209.753C293.612 209.002 293.593 208.212 293.364 207.471C293.303 207.661 293.227 207.846 293.138 208.025C292.93 207.38 292.651 206.759 292.308 206.175C290.914 203.771 288.922 201.743 287.456 199.4C285.236 195.759 284.353 191.457 284.96 187.235C284.96 187.451 284.96 187.672 284.96 187.888C285.016 187.051 285.127 186.218 285.292 185.396C285.524 184.459 285.833 183.544 286.216 182.659C287.533 179.64 289.663 177.009 290.958 173.978C291.392 172.956 291.722 171.893 291.943 170.804C292.399 168.986 292.565 167.107 292.435 165.237C292.435 165.68 292.363 166.123 292.297 166.561C292.157 162.064 290.343 157.783 287.212 154.556C282.692 150.008 276.202 148.241 269.995 147.31C267.386 147.006 264.895 146.054 262.747 144.541C260.362 142.995 257.28 142.624 254.492 142.962C251.287 143.309 248.309 144.783 246.088 147.122C243.139 150.368 241.861 154.966 238.42 157.703C236.334 159.365 233.689 160.14 231.26 161.27C228.831 162.4 226.535 164.04 225.755 166.467C225.755 166.467 225.755 166.433 225.755 166.417V166.555L225.722 166.644C224.914 169.513 226.475 172.433 227.288 175.297C228.134 178.26 228.19 181.39 228.234 184.454C228.295 188.199 228.35 191.949 228.289 195.699C228.262 197.173 228.212 198.663 228.101 200.131C226.792 200.527 225.52 201.039 224.3 201.66C223.061 202.469 218.424 207.482 218.424 207.482L209.356 242.171L209.478 242.31L209.356 242.781L209.816 242.676C211.099 244.06 214.933 248.005 219.072 250.464L219.459 257.267C219.459 257.267 219.924 264.092 226.192 266.912C226.336 269.277 226.784 278.883 224.71 282.688C223.273 285.469 222.597 288.58 222.751 291.707C222.751 291.707 223.476 297.479 222.651 300.515C222.17 302.544 222.134 304.653 222.546 306.697C222.546 306.697 222.546 307.368 222.546 308.52C222.546 314.663 222.618 334.351 222.546 336.578C222.441 339.21 222.546 378.126 222.546 378.126C222.546 378.126 222.032 397.575 220.383 402.844C218.734 408.112 219.149 425.556 219.149 425.556C219.149 425.556 218.115 446.335 221.772 450.435C221.772 450.617 221.739 450.806 221.733 450.989C221.733 451.072 221.733 451.166 221.733 451.249C221.689 452.828 221.993 454.506 223.349 455.022C226.115 456.085 229.772 459.276 230.464 460.19C231.155 461.104 235.177 463.381 240.422 462.771C243.708 462.402 247.015 462.25 250.32 462.317C250.32 462.317 252.39 461.941 251.72 459.365C251.289 457.758 249.673 455.287 248.522 453.664C248.732 453.72 248.937 453.764 249.131 453.803L249.33 453.842H249.485C249.57 453.847 249.655 453.847 249.739 453.842H249.85C249.953 453.85 250.057 453.85 250.16 453.842C251.549 453.709 256.727 456.124 257.651 457.719C258.575 459.315 261.834 460.528 264.29 460.833C265.751 461.01 269.436 460.711 272.528 460.312C274.086 460.151 275.629 459.869 277.143 459.47C277.873 459.193 278.028 458.307 277.818 457.309C277.569 456.043 276.893 454.901 275.903 454.074C275.007 453.437 273.823 451.759 272.949 450.385L272.717 450.014C274.26 448.54 277.049 443.721 277.895 442.723C278.924 441.51 276.235 397.143 276.235 397.143V374.902L280.357 353.851L283.24 342.711L285.713 325.892C285.713 325.892 290.039 306.249 288.706 304.321C288.706 304.282 287.599 284.057 286.438 279.198C285.934 277.032 286.061 272.158 286.36 267.416C286.672 267.105 286.89 266.712 286.988 266.283C287.086 265.853 287.06 265.405 286.913 264.989C286.831 264.705 286.723 264.429 286.593 264.164C286.593 264.081 286.593 263.992 286.593 263.909C288.983 262.808 291.48 261.958 294.045 261.372C298.167 260.563 297.138 258.436 297.138 258.436C297.138 258.436 298.067 256.613 298.681 255.5C299.296 254.386 298.787 244.559 298.681 243.75C298.643 243.423 298.388 241.617 298.095 239.568C299.417 238.626 301.138 237.457 303.013 236.349C306.582 234.233 305.78 232.001 305.487 231.419ZM251.709 371.866C251.709 371.866 248.616 379.765 249.856 381.787C251.095 383.809 249.651 391.316 249.651 391.316L248.616 402.456C248.616 402.456 245.734 423.119 246.763 427.977C247.571 431.788 247.869 443.172 247.963 447.92C247.893 447.947 247.824 447.981 247.759 448.019L247.62 448.091C248.096 446.225 247.897 442.447 245.535 434.846L245.335 403.453C245.335 403.453 244.97 367.19 247.831 363.135C250.691 359.08 251.704 352.195 251.704 352.195C251.704 352.195 251.084 362.127 250.68 364.758C250.276 367.39 251.709 371.866 251.709 371.866ZM245.95 449.897C245.922 449.964 245.889 450.03 245.867 450.091L245.712 449.892C245.791 449.899 245.87 449.901 245.95 449.897Z" fill="url(#paint0_linear_578_12990)"/>
<path d="M277.491 462.339C275.892 462.954 267.223 464.001 264.799 463.708C262.376 463.414 259.167 462.184 258.254 460.578C257.341 458.971 252.223 456.545 250.851 456.7C250.289 456.717 249.728 456.638 249.192 456.467C248.245 456.18 247.32 455.825 246.425 455.404C246.3 454.705 246.321 453.989 246.486 453.299C246.518 453.16 246.559 453.023 246.608 452.889C246.931 451.98 247.599 451.235 248.467 450.817L248.666 450.723C249.05 450.557 249.45 450.434 249.861 450.357C254.21 449.521 272.152 451.199 272.152 451.199C272.152 451.199 272.656 452.102 273.347 453.221C274.21 454.606 275.383 456.296 276.268 456.933C277.249 457.772 277.915 458.921 278.155 460.19C278.365 461.171 278.21 462.068 277.491 462.339Z" fill="white"/>
<path opacity="0.1" d="M277.491 462.339C275.892 462.954 267.228 464.001 264.805 463.708C262.381 463.414 259.172 462.179 258.254 460.578C257.336 458.977 252.229 456.545 250.857 456.7C249.485 456.855 246.431 455.404 246.431 455.404C246.431 455.404 245.955 453.188 247.338 451.676L250.104 453.642C250.104 453.642 257.507 455.941 258.879 458.074C260.251 460.207 262.752 461.398 266.365 461.614C269.065 461.791 275.267 460.738 278.172 460.212C278.365 461.171 278.216 462.068 277.491 462.339Z" fill="black"/>
<path d="M251.006 465.165C247.743 465.101 244.479 465.255 241.236 465.624C236.04 466.234 232.073 463.963 231.382 463.026C230.69 462.09 227.111 458.927 224.361 457.819C223.016 457.298 222.701 455.603 222.762 454.019C222.762 453.936 222.762 453.842 222.762 453.758C222.813 452.755 222.961 451.759 223.205 450.784L244.732 450.324L246.597 452.855L246.884 453.243L248.019 454.789C248.019 454.789 248.533 455.465 249.208 456.451C250.348 458.113 251.941 460.567 252.367 462.19C253.048 464.788 251.006 465.165 251.006 465.165Z" fill="white"/>
<path opacity="0.1" d="M251.006 465.165C247.743 465.101 244.479 465.255 241.236 465.624C236.046 466.234 232.073 463.963 231.387 463.026C230.701 462.09 227.111 458.899 224.361 457.83C223.016 457.309 222.701 455.614 222.762 454.03C224.3 454.39 227.531 455.31 228.798 456.911C230.458 459.049 233.429 462.644 237.65 462.871C241.058 463.054 249.357 462.445 252.4 462.201C253.053 464.788 251.006 465.165 251.006 465.165Z" fill="black"/>
<path opacity="0.1" d="M248.445 450.795C248.196 452.645 247.427 453.144 246.873 453.254C246.738 453.281 246.599 453.281 246.464 453.254C246.391 453.249 246.319 453.238 246.248 453.221C246.248 453.221 226.917 457.498 223.011 454.035C222.912 453.946 222.819 453.85 222.734 453.747C222.785 452.744 222.934 451.748 223.177 450.773L244.705 450.313L246.569 452.844C246.892 451.936 247.56 451.191 248.428 450.773L248.445 450.795Z" fill="black"/>
<path opacity="0.1" d="M273.341 453.199C272.91 453.675 272.55 453.947 272.323 453.853C271.305 453.443 262.962 452.019 260.312 453.243C257.662 454.468 248.693 453.443 248.693 453.443C248.693 453.443 248.693 452.379 248.644 450.673C249.027 450.507 249.428 450.384 249.839 450.307C254.187 449.471 272.13 451.149 272.13 451.149C272.13 451.149 272.655 452.08 273.341 453.199Z" fill="black"/>
<path d="M285.967 327.892L283.522 344.81L280.678 356.022L276.606 377.217V399.653C276.606 399.653 279.251 444.291 278.233 445.51C277.215 446.729 273.347 453.67 272.329 453.266C271.311 452.861 262.968 451.432 260.318 452.651C257.668 453.869 248.699 452.856 248.699 452.856C248.699 452.856 248.495 435.533 247.477 430.642C246.459 425.75 249.308 404.96 249.308 404.96L250.326 393.753C250.326 393.753 251.753 386.208 250.531 384.169C249.308 382.131 252.362 374.198 252.362 374.198C252.362 374.198 250.94 369.705 251.349 367.057C251.759 364.409 252.362 354.421 252.362 354.421C252.362 354.421 251.349 361.357 248.522 365.429C245.695 369.5 246.055 405.99 246.055 405.99L246.254 437.566C251.349 454.285 246.254 452.651 246.254 452.651C246.254 452.651 226.923 456.933 223.017 453.465C219.111 449.997 220.228 428.171 220.228 428.171C220.228 428.171 219.824 410.643 221.451 405.348C223.077 400.052 223.592 380.48 223.592 380.48C223.592 380.48 223.487 341.342 223.592 338.7C223.669 336.484 223.592 316.647 223.592 310.448C223.592 309.295 223.592 308.614 223.592 308.614L225.927 302.809L253.59 299.341H266.824C266.824 299.341 286.742 304.027 288.8 306.049C288.844 306.083 288.881 306.124 288.911 306.171C290.244 308.127 285.967 327.892 285.967 327.892Z" fill="#DAE2FF"/>
<path opacity="0.1" d="M252.378 416.759C252.378 416.759 258.464 431.434 261.336 432.453C264.207 433.472 252.378 416.759 252.378 416.759Z" fill="black"/>
<path opacity="0.1" d="M254.63 438.364C254.63 438.364 275.178 439.383 274.974 441.627C274.769 443.87 254.63 438.364 254.63 438.364Z" fill="black"/>
<path opacity="0.1" d="M227.138 432.497C227.951 433.267 242.812 434.713 241.59 436.12C240.367 437.527 228.361 440.264 228.361 440.264L227.138 432.497Z" fill="black"/>
<path opacity="0.1" d="M224.698 407.181C224.698 407.791 227.752 426.747 228.571 427.562C229.39 428.376 236.101 429.19 236.101 429.19L224.698 407.181Z" fill="black"/>
<path d="M246.857 148.069C243.941 151.332 242.68 155.958 239.283 158.717C237.219 160.379 234.607 161.171 232.206 162.301C229.805 163.431 227.426 165.154 226.712 167.713C225.916 170.594 227.454 173.535 228.261 176.416C229.097 179.396 229.147 182.509 229.196 185.628C229.252 189.401 229.313 193.173 229.246 196.946C229.147 202.823 228.66 208.972 225.545 213.952C236.793 217.537 248.754 218.024 260.55 218.484C262.817 218.646 265.094 218.588 267.35 218.312C269.304 217.922 271.238 217.432 273.142 216.844C276.908 215.847 280.788 215.349 284.684 215.365C286.382 215.365 288.114 215.47 289.752 215.027C291.389 214.584 292.966 213.448 293.409 211.809C293.801 210.335 293.226 208.767 292.474 207.443C291.102 205.028 289.154 203.012 287.682 200.63C286.18 198.114 285.289 195.279 285.08 192.355C284.872 189.431 285.352 186.499 286.482 183.795C287.787 180.753 289.89 178.105 291.173 175.059C292.488 171.787 292.838 168.207 292.181 164.743C291.524 161.278 289.888 158.076 287.467 155.515C283.002 150.939 276.595 149.166 270.465 148.225C267.883 147.919 265.421 146.967 263.305 145.455C260.954 143.904 257.906 143.527 255.15 143.87C251.972 144.227 249.028 145.718 246.857 148.069Z" fill="#3F3D56"/>
<g opacity="0.1">
<path opacity="0.1" d="M286.653 180.598C285.525 183.268 285.042 186.166 285.242 189.057C285.366 186.99 285.844 184.958 286.653 183.052C287.953 180.011 290.056 177.363 291.34 174.316C292.389 171.772 292.83 169.018 292.629 166.273C292.514 168.197 292.079 170.088 291.34 171.868C290.056 174.915 287.953 177.557 286.653 180.598Z" fill="black"/>
<path opacity="0.1" d="M229.362 184.875C229.396 187.046 229.429 189.223 229.434 191.395C229.434 188.404 229.407 185.418 229.362 182.432C229.318 179.335 229.263 176.2 228.427 173.214C227.874 171.319 227.055 169.397 226.768 167.486C226.275 170.2 227.675 172.953 228.427 175.662C229.263 178.621 229.318 181.778 229.362 184.875Z" fill="black"/>
<path opacity="0.1" d="M289.94 211.858C288.28 212.307 286.576 212.207 284.877 212.196C280.985 212.172 277.107 212.66 273.342 213.648C271.437 214.233 269.503 214.721 267.549 215.11C265.292 215.391 263.012 215.45 260.744 215.287C249.346 214.839 237.789 214.357 226.873 211.094C226.549 211.818 226.179 212.521 225.766 213.199C237.014 216.778 248.976 217.271 260.766 217.73C263.035 217.893 265.314 217.834 267.571 217.553C269.518 217.168 271.445 216.682 273.342 216.096C277.099 215.104 280.97 214.611 284.855 214.628C286.554 214.628 288.28 214.734 289.917 214.285C291.555 213.836 293.132 212.712 293.575 211.072C293.761 210.312 293.742 209.517 293.519 208.767C293.027 210.318 291.505 211.399 289.94 211.858Z" fill="black"/>
</g>
<path d="M273.552 205.294C273.142 206.214 271.416 214.157 271.007 214.972C270.597 215.786 268.362 228.821 268.157 229.552C267.953 230.283 253.424 226.494 253.424 226.494L244.677 219.154L235.686 210.197C235.686 210.197 235.42 202.114 242.043 199.522C242.493 199.345 242.955 199.2 243.426 199.09C251.46 197.156 250.652 172.699 250.652 172.699L267.139 179.828C267.139 179.828 264.085 194.098 264.19 196.852C264.218 197.777 264.943 198.353 265.889 198.702C267.352 199.119 268.875 199.283 270.392 199.189C270.392 199.189 273.961 204.38 273.552 205.294Z" fill="#FBBEBE"/>
<path d="M303.069 232.095L305.409 232.71C305.409 232.71 307.141 235.347 303.069 237.801C300.483 239.373 298.001 241.111 295.638 243.002L283.605 246.67L281.287 239.385L292.485 230.876L303.069 232.095Z" fill="#006875"/>
<path opacity="0.1" d="M303.069 232.095L305.409 232.71C305.409 232.71 307.141 235.347 303.069 237.801C300.483 239.373 298.001 241.111 295.638 243.002L283.605 246.67L281.287 239.385L292.485 230.876L303.069 232.095Z" fill="#DAE2FF"/>
<path d="M215.249 239.13L210.568 243.717C210.568 243.717 219.011 253.5 225.506 254.109C232.001 254.719 236.19 246.67 236.19 246.67L230.568 237.806L215.249 239.13Z" fill="#006875"/>
<path opacity="0.1" d="M215.249 239.13L210.568 243.717C210.568 243.717 219.011 253.5 225.506 254.109C232.001 254.719 236.19 246.67 236.19 246.67L230.568 237.806L215.249 239.13Z" fill="black"/>
<path opacity="0.1" d="M259.709 188.681C268.702 188.681 275.992 181.381 275.992 172.377C275.992 163.373 268.702 156.074 259.709 156.074C250.716 156.074 243.426 163.373 243.426 172.377C243.426 181.381 250.716 188.681 259.709 188.681Z" fill="black"/>
<path d="M259.709 187.456C268.702 187.456 275.992 180.157 275.992 171.153C275.992 162.149 268.702 154.85 259.709 154.85C250.716 154.85 243.426 162.149 243.426 171.153C243.426 180.157 250.716 187.456 259.709 187.456Z" fill="#FBBEBE"/>
<path opacity="0.1" d="M288.922 308.021C285.214 308.446 281.562 309.265 278.028 310.464C271.942 312.492 224.25 310.498 223.586 310.464C223.586 309.312 223.586 308.631 223.586 308.631L225.921 302.825L253.585 299.357H266.819C266.819 299.357 286.736 304.044 288.794 306.066C288.877 307.285 288.922 308.021 288.922 308.021Z" fill="black"/>
<path opacity="0.1" d="M273.552 205.294C273.142 206.214 271.416 214.157 271.007 214.972C270.597 215.786 268.362 228.821 268.157 229.552C267.953 230.283 253.424 226.494 253.424 226.494L244.677 219.154L235.686 210.197C235.686 210.197 235.42 202.114 242.043 199.522L258.486 218.451L265.889 198.702C267.352 199.118 268.875 199.283 270.392 199.189C270.392 199.189 273.961 204.38 273.552 205.294Z" fill="black"/>
<path d="M258.486 219.06L241.656 199.671C240.671 199.042 239.545 198.667 238.379 198.581C237.213 198.495 236.045 198.7 234.978 199.178C231.21 200.812 226.529 202.136 225.307 202.951C224.084 203.765 219.503 208.806 219.503 208.806L233.146 244.542L227.138 268.08C227.138 268.08 228.056 280.107 225.716 284.489C224.291 287.291 223.624 290.417 223.78 293.557C223.78 293.557 224.493 299.368 223.68 302.421C223.205 304.462 223.169 306.58 223.575 308.636C223.575 308.636 271.925 310.675 278.027 308.636C281.561 307.434 285.213 306.615 288.921 306.193C288.921 306.193 287.815 285.807 286.708 280.916C285.602 276.024 287.627 257.378 287.627 257.378L286.304 237.402L294.238 216.905C294.238 216.905 289.939 203.765 285.458 202.441C285.458 202.441 277.319 200.502 275.588 199.588C273.856 198.674 268.766 197.854 268.766 197.854L266.094 198.752L258.486 219.06Z" fill="#DAE2FF"/>
<path opacity="0.1" d="M281.968 236.727L246.553 234.316C245.656 234.255 244.88 234.933 244.819 235.83L241.017 291.818C240.956 292.715 241.633 293.492 242.53 293.553L277.945 295.965C278.842 296.026 279.618 295.347 279.679 294.45L283.481 238.463C283.542 237.565 282.865 236.788 281.968 236.727Z" fill="black"/>
<path d="M283.188 235.511L247.772 233.1C246.876 233.039 246.1 233.717 246.039 234.615L242.236 290.602C242.175 291.499 242.853 292.276 243.749 292.337L279.165 294.749C280.061 294.81 280.837 294.132 280.898 293.234L284.7 237.247C284.761 236.349 284.084 235.572 283.188 235.511Z" fill="#3F3D56"/>
<path d="M282.019 239.9L248.336 237.607L244.875 288.576L278.558 290.869L282.019 239.9Z" fill="white"/>
<path opacity="0.1" d="M278.999 252.91L251.485 250.981L250.948 258.659L278.462 260.588L278.999 252.91Z" fill="black"/>
<path opacity="0.1" d="M278.003 283.421L273.637 283.124L273.365 287.126L277.732 287.423L278.003 283.421Z" fill="black"/>
<path opacity="0.1" d="M273.696 273.764L251.346 272.242L251.074 276.244L273.425 277.766L273.696 273.764Z" fill="black"/>
<path d="M277.85 237.994L254.578 236.41L254.16 242.561L277.432 244.146L277.85 237.994Z" fill="#3F3D56"/>
<path opacity="0.1" d="M277.85 237.994L254.578 236.41L254.16 242.561L277.432 244.146L277.85 237.994Z" fill="black"/>
<path opacity="0.1" d="M260.523 306.897C260.523 306.897 260.318 337.066 252.378 354.388C252.378 354.388 261.95 331.559 261.95 330.645C261.95 329.731 267.239 320.148 265.823 317.295C264.406 314.442 260.523 306.897 260.523 306.897Z" fill="black"/>
<path opacity="0.1" d="M260.954 167.076C260.65 164.406 261.302 161.714 262.796 159.481C262.618 161.719 263.251 163.947 264.577 165.757C265.904 167.567 267.836 168.84 270.022 169.342C269.835 169.18 269.702 168.965 269.64 168.725C269.578 168.486 269.589 168.234 269.673 168.001C270.807 169.286 271.676 170.81 272.96 171.94C274.243 173.07 276.169 173.746 277.679 172.942C279.732 171.835 279.754 168.915 279.223 166.644C278.083 161.807 275.744 157.335 272.423 153.642C271.594 152.526 270.519 151.617 269.28 150.986C268.042 150.356 266.675 150.021 265.286 150.008C262.143 149.765 258.879 150.042 256.063 151.454C254.478 152.32 252.994 153.359 251.637 154.551L243.891 160.877C243.146 161.415 242.508 162.087 242.01 162.86C241.677 163.506 241.478 164.213 241.423 164.938C241.225 167.01 241.608 169.096 242.529 170.962C243.45 172.828 244.872 174.4 246.635 175.502C246.598 173.864 247.048 172.253 247.927 170.872C248.807 169.491 250.077 168.403 251.576 167.746C251.811 167.943 252.001 168.187 252.133 168.463C252.266 168.74 252.338 169.041 252.345 169.347L253.977 166.433C254.22 165.903 254.602 165.449 255.084 165.12C256.09 164.567 257.346 165.22 258.204 166.001C259.061 166.782 259.897 167.757 261.048 167.879L261.092 163.542" fill="black"/>
<path d="M260.954 166.467C260.649 163.795 261.302 161.101 262.796 158.866C262.298 163.298 265.634 167.874 270.027 168.727C269.841 168.566 269.707 168.352 269.645 168.114C269.583 167.875 269.595 167.623 269.679 167.392C270.813 168.677 271.682 170.195 272.965 171.33C274.249 172.466 276.174 173.136 277.685 172.328C279.737 171.22 279.759 168.3 279.228 166.035C278.088 161.198 275.75 156.726 272.429 153.033C271.398 151.775 270.099 150.764 268.628 150.075C267.562 149.68 266.443 149.452 265.308 149.399C262.165 149.155 258.901 149.427 256.085 150.839C254.501 151.709 253.017 152.749 251.659 153.941L243.913 160.268C243.167 160.804 242.528 161.477 242.032 162.251C241.699 162.897 241.499 163.603 241.446 164.328C241.248 166.399 241.631 168.485 242.552 170.35C243.473 172.215 244.894 173.786 246.657 174.887C246.622 173.25 247.072 171.639 247.952 170.258C248.831 168.877 250.1 167.789 251.598 167.131C251.832 167.329 252.021 167.573 252.154 167.849C252.287 168.125 252.359 168.426 252.367 168.732L253.994 165.83C254.235 165.298 254.618 164.844 255.1 164.517C256.107 163.963 257.363 164.616 258.221 165.397C259.078 166.179 259.914 167.148 261.064 167.275L261.109 162.932" fill="#3F3D56"/>
<path d="M268.666 269.299C267.244 268.579 243.731 272.252 243.731 272.252C243.731 272.252 239.858 271.144 230.497 269.604C221.135 268.064 220.538 258.901 220.538 258.901L219.514 240.559L222.673 237.79L236.206 246.653C236.206 246.653 236.416 251.135 236.206 251.943C236.073 252.497 235.719 253.157 235.753 253.605C235.763 253.727 235.813 253.842 235.895 253.932C235.977 254.022 236.086 254.082 236.206 254.104C237.125 254.337 249.64 256.364 249.64 256.364C249.64 256.364 278.647 254.375 285.879 264.158C286.451 264.876 286.885 265.696 287.157 266.574C288.949 273.26 269.956 269.936 268.666 269.299Z" fill="#FBBEBE"/>
<path opacity="0.1" d="M287.173 266.612C286.066 267.105 285.38 267.46 285.38 267.46C285.38 267.46 275.001 267.155 269.17 265.039C263.338 262.923 256.251 263.3 256.251 263.3C256.251 263.3 231.951 259.112 235.719 253.644C235.729 253.766 235.779 253.88 235.861 253.97C235.943 254.061 236.053 254.121 236.173 254.143C237.091 254.375 249.606 256.403 249.606 256.403C249.606 256.403 278.614 254.414 285.845 264.197C286.436 264.911 286.886 265.731 287.173 266.612Z" fill="black"/>
<path d="M297.265 234.338C297.265 234.338 298.692 244.426 298.792 245.246C298.892 246.066 299.406 255.943 298.792 257.068C298.178 258.192 297.265 260.02 297.265 260.02C297.265 260.02 298.283 262.159 294.211 262.978C290.139 263.798 285.359 266.236 285.359 266.236C285.359 266.236 274.974 265.931 269.176 263.793C263.377 261.654 256.251 262.059 256.251 262.059C256.251 262.059 225.407 256.757 238.641 250.287C251.875 243.817 261.236 252.58 261.236 252.58L275.992 251.666C275.992 251.666 281.491 248.298 283.018 248.609C284.097 248.746 285.192 248.569 286.172 248.099L286.277 237.396L297.265 234.338Z" fill="#FBBEBE"/>
<path opacity="0.1" d="M222.441 209.576L219.487 209.421L210.535 244.321C210.535 244.321 220.2 241.872 224.366 244.321C228.532 246.769 236.173 247.273 236.173 247.273L233.324 219.453L222.441 209.576Z" fill="black"/>
<path d="M222.441 208.961L219.487 208.806L210.535 243.706C210.535 243.706 220.2 241.257 224.366 243.706C228.532 246.154 236.173 246.659 236.173 246.659L233.324 218.838L222.441 208.961Z" fill="#DAE2FF"/>
<path opacity="0.1" d="M290.144 216.606L294.211 217.526C294.211 217.526 304.596 232.483 305.409 233.319C306.222 234.156 301.536 237.197 299.605 237.197C297.674 237.197 288.208 238.305 285.458 240.864C282.708 243.423 283.854 230.544 283.854 230.25C283.854 229.957 287.267 221.83 287.267 221.83L290.144 216.606Z" fill="black"/>
<path d="M290.144 215.997L294.211 216.911C294.211 216.911 304.596 231.895 305.409 232.71C306.222 233.524 301.536 236.587 299.605 236.587C297.674 236.587 288.208 237.695 285.458 240.255C282.708 242.814 283.854 229.934 283.854 229.641C283.854 229.347 287.29 221.193 287.29 221.193L290.144 215.997Z" fill="#DAE2FF"/>
<g opacity="0.1">
<path opacity="0.1" d="M262.769 158.916C262.745 158.491 262.754 158.065 262.796 157.642C261.954 158.907 261.374 160.33 261.092 161.824V163.109C261.092 163.109 261.092 163.082 261.092 163.065V163.37C261.092 164.267 261.092 165.17 261.065 166.068H260.987V166.483C260.987 166.339 260.987 166.201 260.96 166.057C259.853 165.879 259.062 164.949 258.238 164.206C257.413 163.464 256.124 162.755 255.117 163.326C254.635 163.653 254.252 164.107 254.011 164.638L252.367 167.541C252.36 167.236 252.288 166.935 252.155 166.66C252.022 166.385 251.833 166.141 251.598 165.946C250.1 166.602 248.83 167.69 247.95 169.071C247.07 170.452 246.62 172.064 246.658 173.701C245.146 172.753 243.881 171.458 242.968 169.924C242.055 168.389 241.52 166.659 241.407 164.877C241.311 166.867 241.747 168.847 242.67 170.612C243.593 172.378 244.969 173.865 246.658 174.92C246.622 173.283 247.072 171.672 247.952 170.291C248.831 168.91 250.1 167.822 251.598 167.165C251.832 167.362 252.022 167.606 252.154 167.882C252.287 168.158 252.359 168.459 252.367 168.765L253.994 165.863C254.235 165.332 254.618 164.877 255.1 164.55C256.107 163.996 257.363 164.65 258.221 165.431C259.078 166.212 259.914 167.181 261.065 167.309C261.065 165.89 261.079 164.476 261.109 163.065C261.38 161.585 261.945 160.174 262.769 158.916Z" fill="black"/>
<path opacity="0.1" d="M260.899 164.494C260.926 164.118 260.97 163.741 261.026 163.386L261.087 161.858C260.92 162.726 260.857 163.611 260.899 164.494Z" fill="black"/>
<path opacity="0.1" d="M277.685 171.103C276.175 171.912 274.249 171.236 272.966 170.106C271.682 168.976 270.813 167.453 269.679 166.167C269.595 166.4 269.584 166.652 269.646 166.892C269.708 167.131 269.841 167.346 270.028 167.508C269.917 167.508 269.812 167.453 269.707 167.425C270.813 168.699 271.693 170.195 272.966 171.303C274.238 172.411 276.175 173.109 277.685 172.3C279.195 171.491 279.627 169.596 279.494 167.752C279.395 169.203 278.874 170.461 277.685 171.103Z" fill="black"/>
<path opacity="0.1" d="M269.673 167.414C267.823 166.909 266.171 165.85 264.939 164.379C263.707 162.907 262.954 161.094 262.78 159.182C262.464 163.531 265.74 167.89 270.028 168.727C269.845 168.568 269.714 168.358 269.651 168.124C269.588 167.89 269.596 167.643 269.673 167.414Z" fill="black"/>
</g>
<path d="M535.374 257.954C535.374 257.954 533.195 257.649 533.195 254.475C533.195 251.301 531.634 245.357 531.634 245.357C531.634 245.357 530.284 235.014 528.42 233.374C526.555 231.735 524.16 222.107 524.16 222.107C524.16 222.107 523.75 216.883 522.915 215.758C522.079 214.634 520.951 211.881 519.286 207.953C517.62 204.025 510.693 201.333 510.693 201.333C510.693 201.333 498.14 194.043 494.582 191.666C494.257 191.469 493.953 191.239 493.675 190.979C493.055 190.171 490.355 190.154 490.355 190.154C490.073 188.365 489.802 186.315 489.713 184.459C489.713 184.26 489.713 184.06 489.713 183.861C493.68 181.513 496.668 177.811 498.129 173.435C498.195 173.225 498.25 173.009 498.311 172.793C498.554 172.718 498.778 172.592 498.969 172.424C499.16 172.256 499.312 172.049 499.418 171.818C499.733 171.103 499.744 170.272 500.142 169.602C500.607 168.815 501.492 168.394 502.19 167.807C503.949 166.306 504.403 163.785 504.32 161.497C504.264 159.636 503.966 157.764 504.082 155.919C504.082 155.764 504.082 155.609 504.115 155.454C504.148 155.182 504.187 154.9 504.237 154.634C504.508 153.26 505.1 151.964 505.432 150.601C505.764 149.238 505.797 147.704 505.022 146.529C503.888 144.806 501.526 144.463 499.451 144.313C497.099 144.114 495.025 144.369 493.492 142.413C492.789 141.392 491.997 140.435 491.124 139.555C490.814 139.267 487.805 137.422 487.805 137.306C484.86 135.935 481.519 135.677 478.399 136.58C476.833 137.034 475.367 137.777 473.779 138.148C470.371 138.957 466.443 138.081 463.544 140.037C461.928 141.145 460.96 142.912 460.053 144.624C459.315 146.034 458.566 147.447 457.806 148.862C456.578 151.183 455.339 153.543 454.824 156.113C454.717 156.674 454.648 157.243 454.62 157.814C454.62 158.019 454.62 158.224 454.62 158.428C454.62 158.517 454.62 158.606 454.62 158.694C454.62 158.883 454.62 159.071 454.653 159.248C454.686 159.426 454.653 159.475 454.692 159.592C454.73 159.708 454.741 159.969 454.775 160.146C454.808 160.323 454.874 160.639 454.941 160.877C454.941 160.982 455.007 161.082 455.04 161.187C455.073 161.292 455.162 161.558 455.234 161.741C455.306 161.924 455.311 161.935 455.355 162.029C455.438 162.223 455.538 162.411 455.638 162.583C455.682 162.655 455.715 162.727 455.759 162.799C455.911 163.059 456.081 163.307 456.268 163.542C457.447 165.021 459.195 165.962 460.484 167.347C460.484 167.403 460.484 167.458 460.484 167.514C460.484 167.663 460.484 167.813 460.484 167.968C460.563 171.057 461.395 174.08 462.907 176.773C464.419 179.467 466.565 181.75 469.16 183.423C469.16 183.634 469.187 183.85 469.198 184.066C469.306 185.709 469.286 187.357 469.137 188.996C468.912 188.731 468.629 188.52 468.312 188.378C467.994 188.236 467.648 188.167 467.301 188.176C467.063 188.165 466.825 188.185 466.592 188.237L466.543 188.199V188.248C465.325 188.548 463.826 189.816 462.393 193.422C462.393 193.422 458.033 198.342 454.714 198.137C451.394 197.932 442.99 203.261 442.99 203.261C442.99 203.261 434.791 208.585 433.031 214.013C432.048 217.093 430.867 220.105 429.496 223.032L419.332 243.927L417.468 260.546C417.468 260.546 418.502 267.92 418.298 269.05C418.093 270.18 422.552 280.317 422.552 280.317C422.552 280.317 437.286 306.232 443.305 307.561L443.737 307.262C443.996 307.393 444.269 307.493 444.55 307.561L445.79 306.692C445.866 307.666 445.833 308.645 445.69 309.611C444.866 312.176 446.005 328.873 447.455 332.146C448.904 335.42 448.39 378.353 448.39 378.353L448.185 382.136C448.185 382.136 448.185 382.258 448.235 382.469L448.185 383.366L448.335 383.444C448.49 384.647 448.439 385.869 448.185 387.056C447.665 388.717 447.455 393.409 447.455 393.409C447.455 393.409 443.305 419.933 445.275 425.262C447.245 430.592 448.91 436.43 448.91 436.43C448.91 436.43 450.985 443.078 449.01 444.186C447.034 445.294 441.441 447.26 442.581 450.025C443.632 452.584 447.621 459.442 448.213 460.445L448.163 460.999L447.35 469.823C447.481 470.989 447.797 472.125 448.285 473.192C449.176 475.119 450.902 477.108 454.199 476.892C454.752 476.853 455.389 476.792 456.014 476.709C462.039 475.895 469.453 473.203 469.453 473.203C469.068 472.959 468.717 472.667 468.407 472.333C468.111 472.046 467.876 471.701 467.717 471.32C467.559 470.939 467.479 470.53 467.483 470.117C467.572 468.505 464.567 460.855 463.815 458.966L463.643 458.545C463.643 458.545 470.493 451.371 469.353 445.022C469.353 445.022 461.773 440.591 464.269 438.153C466.764 435.716 471.223 428.736 471.223 428.736C471.223 428.736 471.428 402.616 471.223 398.722C471.01 396.013 471.138 393.289 471.605 390.612C471.688 390.213 471.788 389.82 471.893 389.426C475.347 389.948 478.834 390.213 482.327 390.219C483.603 390.219 484.894 390.193 486.2 390.141C486.2 390.51 486.217 390.909 486.25 391.338C486.538 397.808 487.074 409.159 487.511 413.374C488.131 419.413 491.556 435.705 491.556 435.705C491.556 435.705 485.022 439.898 492.695 450.252C492.695 450.252 492.695 453.997 492.186 454.545C491.643 456.322 491.205 458.129 490.875 459.957C490.554 461.902 490.422 463.879 490.942 464.899C492.186 467.347 499.656 467.148 499.656 467.148C499.716 467.134 499.777 467.125 499.838 467.12C501.248 466.971 502.673 467.105 504.031 467.514C505.388 467.923 506.651 468.599 507.744 469.502C510.583 471.785 521.349 470.787 527.186 470.056C529.471 469.763 530.998 469.502 530.998 469.502C531.072 469.243 531.098 468.973 531.076 468.704C531.015 467.27 529.892 464.123 522.279 461.315C522.279 461.315 515.119 456.495 515.219 452.296H515.059H514.234C514.754 452.279 515.119 452.279 515.119 452.279C515.119 452.279 512.314 442.037 513.46 441.2C514.605 440.364 511.175 429.013 511.175 429.013C511.175 429.013 509.21 409.956 509.1 408.627C509.107 407.481 509.282 406.343 509.62 405.248L509.1 394.794C509.1 394.794 509 391.321 509.1 390.191C509.089 389.21 509.011 388.231 508.867 387.26C508.818 386.873 508.768 386.468 508.713 386.069C511.396 385.388 513.139 384.762 513.139 384.762L512.829 348.394C515.108 343.963 515.529 334.235 515.518 327.344C515.518 322.912 515.319 319.632 515.319 319.632L518.433 314.541C518.433 314.541 519.153 308.448 518.013 307.113C517.509 306.509 517.736 305.883 518.151 305.368C518.37 305.189 518.601 305.026 518.843 304.88C518.816 304.842 518.792 304.801 518.771 304.758C518.988 304.576 519.22 304.412 519.463 304.265C519.463 304.265 518.356 302.548 519.346 301.822C520.276 302.454 521.106 302.958 521.736 303.318C521.692 303.723 521.648 303.955 521.648 303.955L521.914 303.401C522.522 303.745 522.893 303.955 522.893 303.955C522.893 303.955 527.773 294.222 527.667 292.793C527.562 291.364 530.987 285.314 530.987 285.314C530.987 285.314 531.402 282.135 533.272 280.805C535.142 279.475 534.722 269.842 534.722 269.842C534.722 269.842 535.242 264.823 536.487 262.779C537.731 260.735 535.374 257.954 535.374 257.954ZM442.005 253.683L442.099 256.004C441.546 255.112 441.148 254.475 441.148 254.475L442.005 253.683Z" fill="url(#paint1_linear_578_12990)"/>
<path d="M523.18 299.745L521.985 304.841C521.985 304.841 512.414 299.939 510.693 293.734C508.973 287.53 513.576 285.165 513.576 285.165L522.5 288.943L523.18 299.745Z" fill="white"/>
<path opacity="0.1" d="M523.18 299.745L521.985 304.841C521.985 304.841 512.414 299.939 510.693 293.734C508.973 287.53 513.576 285.165 513.576 285.165L522.5 288.943L523.18 299.745Z" fill="black"/>
<path d="M469.464 473.197C469.464 473.197 460.611 476.455 454.525 476.864C451.294 477.08 449.596 475.097 448.722 473.186C448.247 472.132 447.937 471.011 447.803 469.862L448.605 461.082L449.026 456.412L461.956 453.044L463.787 458.656L463.959 459.077C464.689 460.955 467.643 468.566 467.555 470.156C467.548 470.567 467.624 470.976 467.779 471.356C467.934 471.737 468.165 472.083 468.457 472.372C468.756 472.689 469.094 472.966 469.464 473.197Z" fill="white"/>
<path d="M529.903 468.732C529.925 469.001 529.899 469.271 529.825 469.53C529.825 469.53 510.892 472.688 507.02 469.53C505.931 468.608 504.662 467.923 503.294 467.519C501.926 467.116 500.489 467.002 499.075 467.187C499.075 467.187 491.749 467.386 490.527 464.971C490.018 463.957 490.15 461.99 490.466 460.057C490.788 458.239 491.217 456.441 491.749 454.673L492.043 454.44L493.785 453.038L514.19 452.435H514.345C514.245 456.611 521.266 461.403 521.266 461.403C528.741 464.173 529.842 467.303 529.903 468.732Z" fill="white"/>
<path opacity="0.1" d="M529.908 468.732C529.928 469.001 529.9 469.271 529.825 469.53C529.825 469.53 510.892 472.687 507.025 469.53C505.936 468.607 504.666 467.921 503.297 467.518C501.928 467.114 500.49 467.002 499.075 467.187C499.075 467.187 491.744 467.386 490.521 464.971C490.018 463.957 490.145 461.99 490.46 460.052C493.282 460.334 497.736 461.038 499.484 462.722C502.129 465.27 506.61 467.818 509.354 468.023C511.523 468.156 524.42 468.566 529.908 468.732Z" fill="black"/>
<path opacity="0.1" d="M469.464 473.197C469.464 473.197 460.611 476.455 454.525 476.864C451.294 477.08 449.596 475.097 448.722 473.186C450.979 473.945 454.105 474.737 455.748 474.012C457.696 473.142 464.6 472.588 468.473 472.35C468.765 472.674 469.098 472.959 469.464 473.197Z" fill="black"/>
<path d="M482.598 210.679C475.295 207.837 465.901 198.447 468.247 194.06C468.765 192.951 469.075 191.757 469.159 190.536C469.31 188.879 469.333 187.212 469.226 185.551C469.061 182.828 468.734 180.118 468.247 177.435C468.247 177.435 491.047 177.95 489.719 181.313C489.332 182.304 489.265 184.016 489.376 185.927C489.486 187.839 489.758 190.016 490.045 191.849C490.438 194.359 490.842 196.281 490.842 196.281C490.842 196.281 489.442 198.236 488.629 198.342C487.816 198.447 493.077 214.75 482.598 210.679Z" fill="#CF6F80"/>
<path opacity="0.1" d="M463.937 459.049L463.765 459.237C456.949 450.983 448.705 461.276 448.705 461.276L448.583 461.054L449.004 456.384L461.934 453.016L463.765 458.628L463.937 459.049Z" fill="black"/>
<path opacity="0.1" d="M514.356 453.016C514.356 453.016 509.376 452.916 506.721 455.265C504.065 457.614 491.229 455.769 491.782 455.265C491.944 455.009 492.042 454.719 492.07 454.418L493.813 453.016L514.217 452.412C514.295 452.8 514.356 453.016 514.356 453.016Z" fill="black"/>
<path d="M472.418 388.197C472.048 389.115 471.766 390.067 471.577 391.039C471.116 393.701 470.987 396.41 471.195 399.104C471.4 402.982 471.195 428.969 471.195 428.969C471.195 428.969 466.819 435.899 464.373 438.342C461.928 440.785 469.353 445.172 469.353 445.172C470.459 451.493 463.754 458.628 463.754 458.628C456.938 450.374 448.694 460.661 448.694 460.661C448.694 460.661 444.212 452.905 443.095 450.136C441.977 447.366 447.471 445.455 449.402 444.324C451.333 443.194 449.302 436.569 449.302 436.569C449.302 436.569 447.676 430.758 445.739 425.456C443.803 420.155 447.875 393.77 447.875 393.77C447.875 393.77 448.085 389.077 448.589 387.443C448.84 386.264 448.891 385.05 448.738 383.854C448.705 383.449 448.666 383.117 448.639 382.884C448.611 382.651 448.589 382.552 448.589 382.552L448.666 382.419L451.433 377.256C451.433 377.256 473.746 384.945 472.418 388.197Z" fill="#006875"/>
<path d="M514.356 452.407C514.356 452.407 509.376 452.302 506.721 454.623C504.065 456.944 491.229 455.132 491.783 454.623C492.336 454.113 492.286 450.346 492.286 450.346C484.756 440.048 491.18 435.871 491.18 435.871C491.18 435.871 487.821 419.668 487.213 413.657C486.787 409.463 486.261 398.146 485.979 391.737C485.857 388.967 485.785 387.056 485.785 387.056L491.882 385.842L492.673 385.687L507.512 382.701C507.512 382.701 507.921 385.471 508.198 387.737C508.338 388.704 508.414 389.679 508.425 390.656C508.331 391.764 508.425 395.238 508.425 395.238L508.934 405.63C508.605 406.721 508.434 407.853 508.425 408.993C508.53 410.322 510.461 429.273 510.461 429.273C510.461 429.273 513.819 440.585 512.674 441.4C511.529 442.214 514.356 452.407 514.356 452.407Z" fill="#006875"/>
<path opacity="0.1" d="M489.719 181.329C489.332 182.321 489.265 184.033 489.376 185.944C486.322 187.785 482.811 188.727 479.247 188.66C475.682 188.593 472.209 187.521 469.226 185.567C469.061 182.845 468.734 180.135 468.247 177.452C468.247 177.452 491.047 177.967 489.719 181.329Z" fill="black"/>
<path d="M498.521 169.098C498.581 174.124 496.645 178.968 493.138 182.565C489.631 186.162 484.84 188.216 479.821 188.276C474.801 188.336 469.963 186.398 466.371 182.886C462.778 179.375 460.727 174.578 460.667 169.552C460.667 169.397 460.667 169.253 460.667 169.098C460.667 164.07 462.661 159.249 466.212 155.694C469.762 152.138 474.578 150.141 479.599 150.141C484.621 150.141 489.436 152.138 492.987 155.694C496.537 159.249 498.532 164.07 498.532 169.098H498.521Z" fill="#CF6F80"/>
<path opacity="0.1" d="M482.598 210.679C475.295 207.837 465.901 198.447 468.247 194.06C468.765 192.952 469.075 191.757 469.159 190.536L479.157 198.768L485.343 203.848L490.045 191.866C490.438 194.375 490.842 196.298 490.842 196.298C490.842 196.298 489.442 198.253 488.629 198.358C487.816 198.464 493.077 214.75 482.598 210.679Z" fill="black"/>
<path d="M508.452 247.057L500.103 387.488L489.215 388.202L461.015 306.775L465.64 210.102L466.62 189.678L479.157 199.987L485.342 205.067L490.183 192.73L499.185 200.585L508.452 247.057Z" fill="#006875"/>
<path opacity="0.1" d="M472.418 388.197C472.048 389.115 471.766 390.067 471.577 391.039C463.647 389.816 455.944 387.409 448.727 383.898L448.578 383.82L448.627 382.929V382.463L451.394 377.3C451.394 377.3 473.746 384.945 472.418 388.197Z" fill="black"/>
<path opacity="0.1" d="M492.065 391.061C490.039 391.407 487.997 391.642 485.946 391.764C485.824 388.994 485.752 387.083 485.752 387.083L491.882 385.842L492.065 391.061Z" fill="black"/>
<path opacity="0.1" d="M508.22 387.737C504.286 388.762 498.206 389.914 492.773 389.194L492.695 385.687L507.534 382.701C507.534 382.701 507.927 385.449 508.22 387.737Z" fill="black"/>
<path opacity="0.1" d="M492.673 389.836C469.989 393.714 449.214 382.596 449.214 382.596L449.413 378.829C449.413 378.829 449.928 336.124 448.5 332.85C447.073 329.576 445.961 312.996 446.769 310.464C447.576 307.933 443.82 269.709 443.82 269.709L443.211 254.198L420.92 245.13L430.879 224.339C432.224 221.425 433.38 218.428 434.342 215.365C436.074 209.964 444.113 204.663 444.113 204.663C444.113 204.663 452.357 199.367 455.615 199.566C458.874 199.765 463.145 194.879 463.145 194.879C466.299 186.83 469.154 190.448 469.154 190.448C469.154 190.836 469.154 190.448 468.999 191.639C467.892 200.475 486.891 228.394 487.163 228.893L488.994 273.022L490.825 328.867L492.673 389.836Z" fill="black"/>
<path d="M492.065 389.836C469.381 393.714 448.6 382.596 448.6 382.596L448.805 378.829C448.805 378.829 449.314 336.124 447.886 332.85C446.459 329.576 445.347 312.979 446.16 310.426C446.973 307.872 443.195 269.687 443.195 269.687L442.581 254.176L420.295 245.107L430.254 224.317C431.595 221.404 432.752 218.408 433.717 215.348C435.449 209.964 443.516 204.657 443.516 204.657C443.516 204.657 451.759 199.361 455.012 199.56C458.266 199.76 462.559 194.879 462.559 194.879C465.718 186.83 469.198 190.448 469.198 190.448C469.198 190.836 468.866 191.002 469.043 191.639C471.478 200.209 486.327 228.394 486.598 228.893L488.43 273.022L490.222 328.895L492.065 389.836Z" fill="white"/>
<path opacity="0.1" d="M485.951 230.139C483.511 229.12 470.587 214.346 470.587 214.346V210.983C470.117 209.875 467.317 210.551 465.054 211.327L466.028 190.902L467.134 191.822C469.552 200.386 485.686 229.646 485.951 230.139Z" fill="black"/>
<path d="M486.565 228.921C484.12 227.896 471.195 213.127 471.195 213.127V209.759C470.725 208.651 467.931 209.327 465.663 210.102L466.62 189.7L467.726 190.614C470.166 199.167 486.294 228.422 486.565 228.921Z" fill="white"/>
<path opacity="0.1" d="M449.214 302.598C449.518 302.598 464.988 300.969 464.988 300.969C464.988 300.969 474.355 319.416 473.74 323.898C473.126 328.379 472.014 332.357 468.246 331.653C464.479 330.95 447.969 332.207 447.969 332.207L449.214 302.598Z" fill="black"/>
<path d="M448.6 301.374C448.91 301.374 464.379 299.745 464.379 299.745C464.379 299.745 473.74 318.22 473.132 322.652C472.523 327.083 471.4 331.111 467.638 330.407C463.876 329.704 447.355 330.961 447.355 330.961L448.6 301.374Z" fill="white"/>
<path d="M460.257 292.737C460.257 292.737 474.454 300.382 474.758 302.709C475.063 305.035 467.533 301.689 465.906 301.28C464.835 301.025 463.745 300.854 462.647 300.77L451.798 301.064L460.257 292.737Z" fill="#CF6F80"/>
<path opacity="0.1" d="M481.984 231.092C482.809 231.092 483.478 230.422 483.478 229.596C483.478 228.77 482.809 228.101 481.984 228.101C481.159 228.101 480.49 228.77 480.49 229.596C480.49 230.422 481.159 231.092 481.984 231.092Z" fill="black"/>
<path d="M481.984 230.483C482.809 230.483 483.478 229.813 483.478 228.987C483.478 228.161 482.809 227.491 481.984 227.491C481.159 227.491 480.49 228.161 480.49 228.987C480.49 229.813 481.159 230.483 481.984 230.483Z" fill="#3F3D56"/>
<path opacity="0.1" d="M484.734 295.84C485.559 295.84 486.227 295.17 486.227 294.344C486.227 293.518 485.559 292.848 484.734 292.848C483.909 292.848 483.24 293.518 483.24 294.344C483.24 295.17 483.909 295.84 484.734 295.84Z" fill="black"/>
<path d="M484.734 295.225C485.559 295.225 486.227 294.555 486.227 293.729C486.227 292.903 485.559 292.233 484.734 292.233C483.909 292.233 483.24 292.903 483.24 293.729C483.24 294.555 483.909 295.225 484.734 295.225Z" fill="#3F3D56"/>
<path opacity="0.1" d="M483.478 263.466C484.303 263.466 484.972 262.796 484.972 261.97C484.972 261.144 484.303 260.474 483.478 260.474C482.653 260.474 481.984 261.144 481.984 261.97C481.984 262.796 482.653 263.466 483.478 263.466Z" fill="black"/>
<path d="M483.478 262.857C484.303 262.857 484.972 262.187 484.972 261.361C484.972 260.535 484.303 259.865 483.478 259.865C482.653 259.865 481.984 260.535 481.984 261.361C481.984 262.187 482.653 262.857 483.478 262.857Z" fill="#3F3D56"/>
<path d="M517.913 300.46C517.913 300.46 518.931 301.989 517.913 302.676C516.895 303.362 518.013 305.124 518.013 305.124C518.013 305.124 515.473 306.609 516.591 307.955C517.708 309.301 517 315.345 517 315.345L513.946 320.436C513.946 320.436 514.129 323.699 514.14 328.108C514.14 334.988 513.736 344.661 511.501 349.07L511.799 385.25C511.799 385.25 501.105 389.166 492.153 387.97L490.825 329.914C490.825 329.914 492.761 296.992 493.475 290.677C493.893 287.398 494.063 284.093 493.984 280.788C493.984 280.788 493.68 270.906 492.656 266.324C492.656 266.324 491.55 246.448 491.439 240.947C491.389 238.316 491.528 230.638 491.683 223.337C491.854 215.354 492.048 207.826 492.048 207.826L490.028 191.822C490.028 191.822 492.048 191.622 492.656 192.431C492.929 192.686 493.225 192.914 493.542 193.112C497.033 195.472 509.348 202.729 509.348 202.729C509.348 202.729 516.165 205.444 517.797 209.332C519.429 213.221 520.563 215.98 521.354 217.088C522.145 218.196 522.577 223.403 522.577 223.403C522.577 223.403 524.923 232.987 526.754 234.61C528.585 236.233 529.902 246.537 529.902 246.537L513.719 259.278C513.719 259.278 512.297 280.473 511.993 281.293C511.689 282.112 517.913 300.46 517.913 300.46Z" fill="white"/>
<path d="M518.527 300.46C518.527 300.46 519.54 301.989 518.527 302.676C517.515 303.362 518.621 305.124 518.621 305.124C518.621 305.124 516.082 306.609 517.199 307.955C518.317 309.301 517.609 315.345 517.609 315.345L514.566 320.436C514.566 320.436 514.748 323.698 514.765 328.108C514.765 334.988 514.361 344.661 512.126 349.07L512.43 385.25C512.43 385.25 501.735 389.166 492.784 387.97L491.461 329.914C491.461 329.914 493.392 296.992 494.111 290.677C494.53 287.398 494.698 284.092 494.615 280.788C494.615 280.788 494.311 270.906 493.293 266.324C493.293 266.324 492.186 246.448 492.07 240.947C492.02 238.316 492.158 230.638 492.313 223.337C492.485 215.354 492.678 207.826 492.678 207.826L490.012 191.605C490.012 191.605 492.678 191.605 493.293 192.431C493.563 192.689 493.859 192.917 494.178 193.112C497.663 195.472 509.979 202.729 509.979 202.729C509.979 202.729 516.779 205.444 518.439 209.332C520.098 213.221 521.205 215.98 521.996 217.088C522.787 218.196 523.219 223.403 523.219 223.403C523.219 223.403 525.565 232.987 527.396 234.61C529.227 236.233 530.55 246.537 530.55 246.537L514.367 259.278C514.367 259.278 512.945 280.473 512.635 281.292C512.325 282.112 518.527 300.46 518.527 300.46Z" fill="white"/>
<path opacity="0.1" d="M499.147 212.529L500.613 216.794L492.917 224.55C493.088 216.567 493.282 209.039 493.282 209.039L490.615 192.824C490.615 192.824 493.282 192.824 493.896 193.65C494.166 193.908 494.463 194.136 494.781 194.331L501.321 213.216L499.147 212.529Z" fill="black"/>
<path d="M498.521 211.304L499.987 215.564L492.297 223.32C492.463 215.337 492.662 207.809 492.662 207.809L489.99 191.589C489.99 191.589 492.662 191.589 493.271 192.414C493.542 192.671 493.839 192.899 494.156 193.096L500.734 211.997L498.521 211.304Z" fill="white"/>
<path opacity="0.1" d="M498.521 169.098C498.523 171.094 498.209 173.078 497.592 174.976C497.487 174.993 497.381 174.989 497.278 174.964C497.175 174.94 497.079 174.894 496.994 174.831C496.845 169.846 494.399 165.159 491.384 161.176C490.536 159.975 489.51 158.91 488.341 158.019C487.158 157.13 485.687 156.713 484.214 156.85C482.554 157.077 481.088 158.207 479.411 158.351C477.198 158.534 475.217 156.999 473.021 156.927C472.128 156.935 471.247 157.133 470.436 157.51C469.626 157.886 468.906 158.432 468.324 159.11C467.169 160.474 466.311 162.065 465.806 163.78C464.936 166.383 464.463 169.102 464.401 171.846C464.373 173.397 464.224 175.341 462.785 175.906C462.894 174.766 462.765 173.616 462.406 172.529C462.047 171.442 461.466 170.441 460.7 169.591L460.667 169.552C460.667 169.397 460.667 169.253 460.667 169.098C460.667 164.07 462.661 159.249 466.212 155.694C469.762 152.138 474.578 150.141 479.599 150.141C484.621 150.141 489.436 152.138 492.987 155.694C496.537 159.249 498.532 164.07 498.532 169.098H498.521Z" fill="black"/>
<path d="M487.456 139.001C484.581 137.647 481.311 137.391 478.26 138.281C476.728 138.735 475.284 139.472 473.729 139.843C470.41 140.646 466.537 139.776 463.687 141.721C462.105 142.829 461.153 144.579 460.268 146.286L458.055 150.501C456.849 152.811 455.632 155.16 455.128 157.703C454.625 160.245 454.929 163.093 456.539 165.143C457.707 166.627 459.444 167.563 460.716 168.965C461.481 169.819 462.06 170.823 462.418 171.913C462.776 173.003 462.905 174.155 462.797 175.297C464.235 174.743 464.379 172.787 464.412 171.236C464.474 168.492 464.948 165.773 465.817 163.17C466.322 161.455 467.18 159.864 468.335 158.5C468.917 157.822 469.637 157.275 470.447 156.898C471.257 156.52 472.139 156.321 473.032 156.312C475.245 156.39 477.231 157.924 479.422 157.736C481.082 157.598 482.554 156.467 484.225 156.24C485.698 156.101 487.17 156.518 488.352 157.409C489.522 158.298 490.546 159.363 491.389 160.567C494.41 164.555 496.861 169.22 497.005 174.222C497.63 174.676 498.532 174.078 498.842 173.369C499.152 172.66 499.163 171.829 499.556 171.153C500.009 170.372 500.878 169.951 501.559 169.364C503.285 167.874 503.716 165.364 503.65 163.087C503.583 160.811 503.141 158.5 503.572 156.262C503.832 154.894 504.419 153.603 504.74 152.246C505.061 150.889 505.099 149.366 504.341 148.197C503.235 146.485 500.906 146.142 498.875 145.981C496.568 145.781 494.504 146.036 493.033 144.092C492.34 143.078 491.563 142.126 490.709 141.244C490.405 140.951 487.456 139.123 487.456 139.001Z" fill="#512E4E"/>
<path opacity="0.1" d="M427.305 255.821L421.529 245.124L419.697 261.632C419.697 261.632 420.715 268.967 420.511 270.091C420.306 271.216 424.682 281.298 424.682 281.298C424.682 281.298 439.139 307.085 445.042 308.409L464.96 294.139L459.671 287.414C459.671 287.414 457.839 286.699 457.38 287.414C457.38 287.414 447.554 270.496 446.542 269.277C445.529 268.058 445.723 265.604 445.723 265.604C445.723 265.604 444.196 263.975 444.705 262.447C445.214 260.918 441.784 255.622 441.784 255.622L444.937 252.669L427.305 255.821Z" fill="black"/>
<path d="M421.833 243.9L420.306 245.124L418.475 261.632C418.475 261.632 419.493 268.967 419.288 270.091C419.083 271.216 423.465 281.298 423.465 281.298C423.465 281.298 437.916 307.085 443.82 308.409L463.771 294.139L458.476 287.414C458.476 287.414 456.644 286.699 456.185 287.414C456.185 287.414 446.365 270.496 445.347 269.277C444.329 268.058 444.533 265.604 444.533 265.604C444.533 265.604 443.006 263.975 443.515 262.447C444.024 260.918 440.561 255.622 440.561 255.622L443.715 252.669L421.833 243.9Z" fill="white"/>
<path opacity="0.1" d="M516.591 308.592C517.698 309.938 517.001 315.987 517.001 315.987L513.946 321.045C513.946 321.045 514.129 324.313 514.14 328.723L509.006 330.329C508.541 330.475 508.048 330.506 507.569 330.422C507.089 330.338 506.637 330.14 506.249 329.845C505.862 329.55 505.55 329.167 505.341 328.727C505.131 328.287 505.029 327.803 505.044 327.316L505.935 298.731L517.913 303.313C516.895 304.022 518.013 305.761 518.013 305.761C518.013 305.761 515.473 307.246 516.591 308.592Z" fill="black"/>
<path d="M517.2 307.983C518.306 309.323 517.609 315.372 517.609 315.372L514.566 320.436C514.566 320.436 514.749 323.699 514.765 328.108L509.537 329.742C509.083 329.885 508.601 329.917 508.133 329.835C507.664 329.753 507.222 329.56 506.842 329.272C506.463 328.984 506.159 328.61 505.954 328.18C505.749 327.75 505.649 327.277 505.664 326.801L506.555 298.116L518.527 302.709C517.504 303.418 518.622 305.157 518.622 305.157C518.622 305.157 516.082 306.636 517.2 307.983Z" fill="white"/>
<path d="M521.172 294.344C521.172 294.344 520.359 299.546 518.323 299.85C516.287 300.155 515.374 308.265 513.343 307.983C511.313 307.7 512.657 300.438 512.729 299.031C512.801 297.623 510.516 291.796 512.22 290.472C513.924 289.148 519.346 290.472 519.346 290.472L521.172 294.344Z" fill="#CF6F80"/>
<path opacity="0.1" d="M525.476 254.292L529.31 246.537C529.31 246.537 530.843 252.448 530.843 255.605C530.843 258.763 532.979 259.073 532.979 259.073C532.979 259.073 535.319 261.843 534.085 263.865C532.851 265.887 532.359 270.895 532.359 270.895C532.359 270.895 532.763 280.473 530.931 281.797C529.1 283.121 528.691 286.284 528.691 286.284C528.691 286.284 525.332 292.294 525.437 293.724C525.543 295.153 520.757 304.831 520.757 304.831C520.757 304.831 523.097 292.804 509.459 287.608C509.459 287.608 509.354 283.531 510.372 282.412C511.39 281.293 512.978 280.75 511.982 275.121C510.986 269.493 511.694 262.707 511.694 261.35C511.694 259.993 514.748 251.534 514.748 251.534L525.476 254.292Z" fill="black"/>
<path d="M527.181 245.429L530.533 246.537C530.533 246.537 532.066 252.447 532.066 255.605C532.066 258.763 534.202 259.073 534.202 259.073C534.202 259.073 536.542 261.843 535.308 263.865C534.074 265.887 533.576 270.894 533.576 270.894C533.576 270.894 533.986 280.473 532.154 281.797C530.323 283.121 529.941 286.284 529.941 286.284C529.941 286.284 526.583 292.294 526.688 293.723C526.793 295.153 522.002 304.83 522.002 304.83C522.002 304.83 524.342 292.804 510.704 287.608C510.704 287.608 510.605 283.53 511.623 282.411C512.641 281.292 514.229 280.75 513.233 275.121C512.237 269.493 512.945 262.707 512.945 261.35C512.945 259.992 515.999 251.533 515.999 251.533L527.181 245.429Z" fill="white"/>
<path opacity="0.1" d="M453.109 446.446C453.109 446.446 458.453 443.084 461.961 445.527C465.469 447.97 453.109 446.446 453.109 446.446Z" fill="black"/>
<path opacity="0.1" d="M494.648 436.048C494.648 436.048 499.379 435.439 503.351 439.721C507.324 444.003 494.648 436.048 494.648 436.048Z" fill="black"/>
<g opacity="0.1">
<path opacity="0.1" d="M501.559 168.145C500.878 168.738 500.004 169.153 499.551 169.934C499.163 170.605 499.152 171.436 498.842 172.15C498.533 172.865 497.631 173.458 497 173.003C496.856 168.018 494.405 163.337 491.39 159.348C490.547 158.146 489.522 157.083 488.352 156.196C487.169 155.303 485.695 154.884 484.22 155.022C482.56 155.249 481.099 156.379 479.423 156.523C477.21 156.706 475.223 155.171 473.027 155.099C472.135 155.106 471.254 155.304 470.445 155.681C469.635 156.057 468.916 156.603 468.335 157.282C467.18 158.646 466.323 160.236 465.818 161.952C464.948 164.555 464.475 167.274 464.413 170.017C464.379 171.563 464.236 173.491 462.808 174.067C462.841 174.478 462.841 174.891 462.808 175.302C464.252 174.748 464.396 172.793 464.429 171.242C464.491 168.498 464.965 165.779 465.834 163.176C466.339 161.461 467.197 159.87 468.352 158.506C468.933 157.828 469.652 157.281 470.461 156.904C471.271 156.527 472.151 156.327 473.044 156.318C475.257 156.395 477.248 157.93 479.439 157.742C481.099 157.603 482.571 156.473 484.236 156.246C485.711 156.106 487.185 156.523 488.369 157.415C489.539 158.303 490.563 159.369 491.406 160.572C494.422 164.561 496.873 169.225 497.017 174.228C497.647 174.682 498.549 174.084 498.859 173.374C499.169 172.665 499.18 171.834 499.567 171.159C500.021 170.378 500.895 169.956 501.576 169.369C503.302 167.879 503.733 165.37 503.667 163.093C503.667 163.021 503.667 162.954 503.667 162.882C503.556 164.866 503.031 166.876 501.559 168.145Z" fill="black"/>
<path opacity="0.1" d="M460.711 167.757C459.444 166.356 457.707 165.414 456.539 163.929C455.553 162.619 454.992 161.038 454.929 159.398C454.756 161.448 455.328 163.492 456.539 165.154C457.707 166.638 459.444 167.574 460.711 168.976C461.935 170.346 462.67 172.084 462.802 173.917C462.886 172.803 462.743 171.682 462.384 170.624C462.025 169.565 461.456 168.59 460.711 167.757Z" fill="black"/>
<path opacity="0.1" d="M504.74 151.028C504.413 152.385 503.833 153.675 503.567 155.044C503.407 155.969 503.35 156.909 503.395 157.847C503.414 157.317 503.471 156.789 503.567 156.268C503.833 154.9 504.413 153.609 504.74 152.252C504.927 151.503 504.989 150.728 504.922 149.958C504.887 150.319 504.826 150.676 504.74 151.028Z" fill="black"/>
</g>
<path opacity="0.1" d="M73.4352 464.71C103.209 464.71 127.346 460.829 127.346 456.041C127.346 451.253 103.209 447.371 73.4352 447.371C43.6614 447.371 19.5249 451.253 19.5249 456.041C19.5249 460.829 43.6614 464.71 73.4352 464.71Z" fill="#006875"/>
<path d="M75.1726 289.957H71.7036V368.16H75.1726V289.957Z" fill="#535461"/>
<path d="M96.9766 367.927L96.7553 371.45L96.451 376.436L96.3237 378.508L96.0139 383.494L95.8811 385.565L95.5768 390.551L92.0747 447.094C91.9253 449.527 90.8548 451.811 89.0813 453.481C87.3079 455.151 84.9651 456.08 82.5308 456.08H64.3449C61.9039 456.081 59.555 455.146 57.7803 453.468C56.0056 451.79 54.9396 449.496 54.8011 447.055L51.2989 390.512L50.9946 385.527L50.8673 383.455L50.552 378.469L50.4247 376.397L50.1204 371.412L49.8991 367.888C49.8608 367.213 49.9602 366.537 50.1911 365.901C50.4221 365.266 50.7798 364.684 51.2425 364.191C51.7052 363.698 52.2632 363.305 52.8826 363.035C53.502 362.765 54.1698 362.624 54.8453 362.62H92.0359C92.7145 362.624 93.3851 362.767 94.0065 363.039C94.628 363.312 95.1872 363.709 95.6499 364.206C96.1126 364.703 96.4689 365.29 96.6971 365.929C96.9252 366.569 97.0203 367.249 96.9766 367.927Z" fill="#3F3D56"/>
<path d="M96.7551 371.445L96.4453 376.419H50.4246L50.1147 371.445H96.7551Z" fill="#9D9CB5"/>
<path d="M96.318 378.491L96.0137 383.466H50.8616L50.5518 378.491H96.318Z" fill="#9D9CB5"/>
<path d="M95.8813 385.543L95.577 390.512H51.2991L50.9893 385.543H95.8813Z" fill="#9D9CB5"/>
<path d="M44.8422 319.272C65.0475 333.908 73.4627 356.798 73.4627 356.798C73.4627 356.798 49.1189 355.961 28.9081 341.326C8.69725 326.69 0.270996 303.817 0.270996 303.817C0.270996 303.817 24.6147 304.637 44.8422 319.272Z" fill="#006875"/>
<path d="M0.270996 303.817C0.270996 303.817 25.5387 317.86 33.6441 329.487C41.7494 341.115 73.4405 356.809 73.4405 356.809" stroke="#535461" stroke-width="2" stroke-miterlimit="10"/>
<path d="M57.8605 289.79C68.8595 297.751 73.4405 310.209 73.4405 310.209C73.4405 310.209 60.1621 309.755 49.1908 301.795C38.2196 293.834 33.6108 281.37 33.6108 281.37C33.6108 281.37 46.8671 281.824 57.8605 289.79Z" fill="#006875"/>
<path d="M33.6108 281.37C33.6108 281.37 47.3651 289.015 51.7801 295.341C56.1952 301.667 73.4405 310.209 73.4405 310.209" stroke="#535461" stroke-width="2" stroke-miterlimit="10"/>
<path d="M89.4191 309.578C76.788 323.477 74.1157 341.641 74.1157 341.641C74.1157 341.641 91.9254 337.265 104.545 323.361C117.165 309.456 119.849 291.297 119.849 291.297C119.849 291.297 102.05 295.679 89.4191 309.578Z" fill="#006875"/>
<path d="M119.86 291.303C119.86 291.303 103.406 305.551 99.223 315.367C95.0403 325.183 74.1157 341.641 74.1157 341.641" stroke="#535461" stroke-width="2" stroke-miterlimit="10"/>
</g>
<defs>
<linearGradient id="paint0_linear_578_12990" x1="257.563" y1="462.871" x2="257.563" y2="142.873" gradientUnits="userSpaceOnUse">
<stop stop-color="#808080" stop-opacity="0.25"/>
<stop offset="0.54" stop-color="#808080" stop-opacity="0.12"/>
<stop offset="1" stop-color="#808080" stop-opacity="0.1"/>
</linearGradient>
<linearGradient id="paint1_linear_578_12990" x1="477.132" y1="476.881" x2="477.132" y2="136.004" gradientUnits="userSpaceOnUse">
<stop stop-color="#808080" stop-opacity="0.25"/>
<stop offset="0.54" stop-color="#808080" stop-opacity="0.12"/>
<stop offset="1" stop-color="#808080" stop-opacity="0.1"/>
</linearGradient>
<clipPath id="clip0_578_12990">
<rect width="646" height="478" fill="white"/>
</clipPath>
</defs>
</svg>
